# xmcd CD database file
#
# Track frame offsets:
#	150
#	22372
#	48622
#	66697
#	93652
#	126278
#	136403
#	161416
#	197529
#	209305
#	234482
#	267760
#	280735
#
# Disc length: 4082 seconds
#
# Revision: 0
# Processed by: cddbd v1.5.2PL0 Copyright (c) Steve Scherf et al.
# Submitted via: CDex 1.51
#
DISCID=c90ff00d
DTITLE=Inner Spring - ....and other seasons
DYEAR=2011
DGENRE=Jazz
TTITLE0=Speedy Gesualdo
TTITLE1=The Champion a Holiday
TTITLE2=The Lake, The Magpie, and the Ring
TTITLE3=Not Quite Stillness
TTITLE4=Bonsai Whale
TTITLE5=Intermezzo 1. Prince of Paper
TTITLE6=Belle of Ponyland
TTITLE7=Dráva
TTITLE8=Intermezzo 2. Princess of Paper
TTITLE9=The Picture of Doris, Travelling with Boris
TTITLE10=Remain a Child
TTITLE11=Intermezzo 3. Midnight at the Castle
TTITLE12=Birdwatching
EXTD=YEAR: 2011
EXTT0=
EXTT1=
EXTT2=
EXTT3=
EXTT4=
EXTT5=
EXTT6=
EXTT7=
EXTT8=
EXTT9=
EXTT10=
EXTT11=
EXTT12=
PLAYORDER=
